<?xml version="1.0" encoding="UTF-8" standalone="no"?>
<!-- Created with Inkscape (http://www.inkscape.org/) -->

<svg
   width="210mm"
   height="297mm"
   viewBox="0 0 210 297"
   version="1.1"
   id="svg5"
   inkscape:version="1.1.1 (3bf5ae0d25, 2021-09-20)"
   sodipodi:docname="Hyperspawn_Logo_Black.svg"
   xmlns:inkscape="http://www.inkscape.org/namespaces/inkscape"
   xmlns:sodipodi="http://sodipodi.sourceforge.net/DTD/sodipodi-0.dtd"
   xmlns="http://www.w3.org/2000/svg"
   xmlns:svg="http://www.w3.org/2000/svg">
  <sodipodi:namedview
     id="namedview7"
     pagecolor="#505050"
     bordercolor="#eeeeee"
     borderopacity="1"
     inkscape:pageshadow="0"
     inkscape:pageopacity="0"
     inkscape:pagecheckerboard="0"
     inkscape:document-units="mm"
     showgrid="false"
     inkscape:zoom="0.64052329"
     inkscape:cx="286.48451"
     inkscape:cy="586.23942"
     inkscape:window-width="1920"
     inkscape:window-height="1121"
     inkscape:window-x="-9"
     inkscape:window-y="-9"
     inkscape:window-maximized="1"
     inkscape:current-layer="g1340" />
  <defs
     id="defs2" />
  <g
     inkscape:label="Layer 1"
     inkscape:groupmode="layer"
     id="layer1">
    <g
       id="g1340"
       transform="matrix(-1,0,0,1,176.35923,-13.011821)">
      <path
         style="fill:#000000;fill-opacity:1;stroke-width:0.554389"
         d="m -33.565908,233.67363 c 0,-28.6186 0.221596,-32.16527 2.533075,-40.54312 3.692619,-13.38374 11.490307,-25.79566 21.5829252,-34.35438 11.9129207,-10.10241 25.1906258,-16.42502 43.6516738,-20.78619 28.033347,-6.62248 61.294449,-6.04544 75.719384,1.31361 2.93168,1.49563 6.03323,4.22183 7.05831,6.20412 1.01344,1.95979 1.03722,6.63712 0.0455,8.97189 -2.51036,5.91058 -11.31734,10.45576 -25.923968,13.37911 -13.051895,2.61216 -19.249157,1.84621 -10.462532,-1.29312 11.658991,-4.16559 19.95077,-8.85085 21.86719,-12.35606 1.02417,-1.87325 1.03063,-2.04242 0.13049,-3.41621 -3.455765,-5.27416 -21.541626,-7.87683 -39.201378,-5.64136 -26.284821,3.32728 -47.98133,11.75096 -57.7505564,22.42164 -5.90844165,6.45362 -7.9573305,14.85054 -4.99773265,20.4821 4.71700405,8.97557 16.33456005,15.99414 32.30019605,19.51363 19.786319,4.36175 53.148127,3.6207 78.974841,-1.75416 20.86211,-4.34168 44.119,-14.39931 60.29,-26.07292 l 3.74214,-2.70138 v 42.13985 42.13986 h -32.7023 -32.70232 l -0.14541,-20.65104 c -0.14249,-20.25924 -0.16637,-20.64975 -1.25413,-20.58196 -0.60984,0.0379 -5.72408,0.63398 -11.365008,1.32436 -8.470513,1.03668 -13.007205,1.25431 -26.056359,1.24986 -15.099884,-0.004 -23.240804,-0.59409 -37.559971,-2.71717 l -2.356161,-0.34932 v 20.86263 20.86264 H -0.85691834 -33.56596 Z m 85.65335,-38.97029 c -2.43932,-0.27484 -6.433441,-0.97175 -8.87583,-1.54868 -12.848114,-3.03493 -18.566501,-7.46096 -18.566501,-14.37049 0,-7.08823 5.98107,-12.19513 18.57256,-15.85815 9.584352,-2.7882 23.42004,-4.57604 22.880208,-2.95661 -0.12039,0.36123 -3.696212,2.05468 -7.946261,3.7633 -9.777844,3.93088 -13.143505,5.75641 -16.449024,8.92202 -2.956476,2.83133 -3.155056,3.59837 -1.482146,5.72514 4.737173,6.02233 25.771466,7.92477 46.516394,4.2071 28.861358,-5.17216 48.108628,-14.93719 54.377928,-27.58839 1.58894,-3.2065 1.84764,-4.30293 1.8598,-7.88249 0.0168,-4.81695 -1.06631,-7.38107 -4.84964,-11.48549 -14.30029,-15.51398 -49.323134,-21.00804 -94.504107,-14.82487 -26.305789,3.60001 -50.4994266,12.75503 -71.623593,27.10283 -2.276294,1.54609 -4.4592,3.01057 -4.850917,3.25439 -0.577666,0.35961 -0.712221,-7.52162 -0.712221,-41.71788 V 67.283839 H -0.85685281 31.852187 v 20.865972 20.865959 l 3.187751,-0.40422 c 1.75325,-0.22232 5.931969,-0.76564 9.286038,-1.20735 10.291826,-1.35539 34.834426,-1.61729 46.842356,-0.49985 5.638925,0.52476 12.125288,1.28032 14.414138,1.67901 2.28889,0.39872 4.34871,0.61004 4.57739,0.46964 0.22868,-0.14038 0.4158,-9.595923 0.4158,-21.012235 V 67.283839 h 32.70903 32.70905 v 27.902798 c 0,24.893583 -0.11252,28.525783 -1.04248,33.679243 -2.76788,15.33727 -8.97469,27.28787 -19.70191,37.93417 -8.66774,8.60233 -19.44992,15.18015 -32.75429,19.98218 -9.82057,3.5446 -25.694059,6.88371 -37.975772,7.98854 -7.547168,0.67891 -26.151032,0.64023 -32.431846,-0.0676 z"
         id="path1342" />
    </g>
  </g>
</svg>
